<svg width="26" height="18" viewBox="0 0 26 18" fill="none" xmlns="http://www.w3.org/2000/svg">
<path fill-rule="evenodd" clip-rule="evenodd" d="M25.8661 1.45038C25.951 1.39058 26 1.3023 26 1.20925C26 1.03543 25.8323 0.894531 25.6254 0.894531H0.58151C0.260351 0.894531 0 1.11327 0 1.38309C0 1.52833 0.0769173 1.66605 0.209884 1.75887L12.4188 10.2815C12.6848 10.4673 13.0709 10.4665 13.3359 10.2798L25.8661 1.45038ZM1.17291 4.25501C0.706637 3.92951 0 4.20811 0 4.71743V17.1273C0 17.4593 0.320383 17.7285 0.715596 17.7285H25.2844C25.6796 17.7285 26 17.4593 26 17.1273V4.47588C26 3.96526 25.2902 3.68711 24.8246 4.01524L13.4172 12.0534L13.3409 12.1071C13.0759 12.2939 12.6898 12.2946 12.4238 12.1089L12.3472 12.0555L1.17291 4.25501Z" fill="white"/>
</svg>
