<svg width="15" height="12" viewBox="0 0 15 12" fill="none" xmlns="http://www.w3.org/2000/svg">
<path d="M-0.000181102 7.55665C0.0889105 7.30546 0.228116 7.09328 0.473913 6.96067C1.11505 6.61587 1.86995 7.06286 1.88188 7.79614C1.89858 8.85315 2.57711 9.72372 3.60564 9.99285C3.81485 10.0475 4.02564 10.106 4.24837 10.1028C5.24827 10.088 6.23384 9.29623 6.44225 8.33595C6.49078 8.11051 6.52339 7.88429 6.51703 7.65416C6.51385 7.54261 6.55044 7.51297 6.66419 7.54183C7.21306 7.68146 7.76431 7.68224 8.31318 7.54417C8.44761 7.50985 8.47147 7.55587 8.47147 7.67366C8.46988 8.1815 8.57488 8.66203 8.88034 9.08405C9.26614 9.61685 9.78478 9.94682 10.4474 10.0451C11.9651 10.2713 13.0151 9.07391 13.0843 8.07541C13.0915 7.97087 13.1058 7.86712 13.1082 7.76181C13.1193 7.25476 13.5521 6.83586 14.058 6.84132C14.5862 6.846 14.9943 7.25554 14.9998 7.77975C15.0086 8.55516 14.7946 9.26737 14.3992 9.93668C13.8798 10.8166 13.1114 11.383 12.1529 11.7441C11.3654 12.0413 10.5667 12.0741 9.77205 11.8596C8.94875 11.6373 8.21295 11.2355 7.63624 10.5951C7.49465 10.4375 7.49544 10.4391 7.35624 10.5912C6.86942 11.1216 6.26964 11.4773 5.5935 11.7363C4.8044 12.0382 3.99939 12.0811 3.19916 11.8635C2.17938 11.5866 1.31949 11.0444 0.72687 10.1621C0.348231 9.59813 0.0865241 8.98186 0.0165236 8.29929C0.0149326 8.28057 0.00538712 8.26263 -0.000976562 8.24468C-0.000976562 8.01534 -0.000976562 7.78522 -0.000976562 7.55587L-0.000181102 7.55665Z" fill="white"/>
<path d="M3.17847 2.20061C3.18006 1.07885 3.95086 0.191122 5.08121 0.0148231C5.17189 0.000781621 5.26576 0.0015617 5.35803 0.0015617C6.7819 0.000781622 8.20657 -0.00155862 9.63045 0.0015617C10.826 0.00468203 11.7925 0.957162 11.8084 2.12885C11.8164 2.70377 11.6318 3.2077 11.2627 3.64844C10.6383 4.39498 10.0123 5.13918 9.38624 5.88416C9.13169 6.18761 8.82306 6.41695 8.46271 6.59481C7.90589 6.87096 7.33395 6.89125 6.76281 6.69857C6.30701 6.54411 5.91962 6.26796 5.60939 5.89508C4.98416 5.14386 4.35257 4.39654 3.72415 3.64766C3.37097 3.2272 3.18404 2.74667 3.17847 2.20061Z" fill="white"/>
</svg>
