<svg width="15" height="12" viewBox="0 0 15 12" fill="none" xmlns="http://www.w3.org/2000/svg">
<path d="M3.52137 4.0607C3.6157 4.14847 3.70914 4.22915 3.79539 4.3187C4.21047 4.74869 4.20058 5.317 3.77293 5.73458C3.35066 6.14684 2.77387 6.16014 2.34981 5.74788C1.65981 5.07762 0.976097 4.40204 0.29688 3.72202C-0.0975339 3.32749 -0.0984324 2.71219 0.29688 2.31766C0.976097 1.63765 1.66071 0.962065 2.34981 0.291802C2.7541 -0.100957 3.39648 -0.0938644 3.78551 0.294462C4.1907 0.697861 4.19519 1.30961 3.79539 1.72276C3.71004 1.81142 3.6157 1.89121 3.51687 1.98342C3.60043 2.02686 3.65793 2.01179 3.71363 2.01179C5.51769 2.01267 7.32175 2.02154 9.12581 2.01001C11.4644 1.99494 13.7348 3.69365 14.1292 6.30022C14.4535 8.44223 13.2928 10.5674 11.2892 11.5152C10.6163 11.8343 9.90655 12.0028 9.15636 12.001C8.45648 11.9992 7.75749 12.0028 7.05761 11.9992C6.66679 11.9975 6.34964 11.8485 6.15648 11.5001C5.95882 11.1428 5.96871 10.7802 6.18613 10.4353C6.3757 10.1347 6.66769 9.9911 7.02257 9.98844C7.70089 9.98312 8.37921 9.9911 9.05843 9.98489C9.50855 9.98046 9.95058 9.91308 10.3612 9.71892C11.4222 9.21533 12.0116 8.38549 12.1086 7.22494C12.2335 5.73458 11.2371 4.42863 9.79605 4.10857C9.55976 4.05626 9.31898 4.02967 9.0773 4.02878C7.27863 4.02612 5.47996 4.02701 3.68129 4.02878C3.63637 4.02878 3.58785 4.01282 3.52316 4.06158L3.52137 4.0607Z" fill="white"/>
</svg>
