<svg width="15" height="15" viewBox="0 0 15 15" fill="none" xmlns="http://www.w3.org/2000/svg">
<path d="M15 8.17794C14.8101 8.64504 14.473 9.01945 14.1931 9.42839C13.5933 10.3063 12.9771 11.1732 12.3683 12.0456C11.8121 12.8435 11.0542 13.2552 10.0764 13.2543C8.48149 13.2525 6.88571 13.2515 5.29084 13.257C5.14816 13.257 5.07546 13.2097 5.01275 13.0834C4.23667 11.5194 3.45696 9.95638 2.6736 8.39604C2.61181 8.27336 2.62271 8.2052 2.72813 8.11341C3.05619 7.82806 3.38426 7.54544 3.76503 7.33188C4.83555 6.73028 6.21595 6.77754 7.20559 7.55998C7.27829 7.61723 7.35827 7.66812 7.42097 7.73628C7.59454 7.9253 7.81083 7.96983 8.0571 7.9671C8.75503 7.95983 9.45205 7.96256 10.15 7.9662C10.5726 7.96892 10.9152 8.25064 11.0124 8.66503C11.1014 9.04126 10.9106 9.45202 10.5562 9.64104C10.4199 9.71374 10.2745 9.74373 10.12 9.74282C9.56837 9.7401 9.01766 9.7401 8.46604 9.74282C8.17252 9.74464 8.00621 9.87278 7.97077 10.1154C7.93896 10.3308 8.07073 10.5244 8.28338 10.5762C8.35972 10.5952 8.43696 10.5998 8.51512 10.5998C9.10581 10.5998 9.6956 10.5998 10.2863 10.5998C10.6598 10.5998 10.9597 10.4635 11.1987 10.1636C11.9175 9.26481 12.6609 8.38513 13.3706 7.4791C13.8668 6.84479 14.7701 7.02108 14.9809 7.73083C14.9855 7.74446 14.9937 7.75718 15 7.7699V8.17975V8.17794Z" fill="white"/>
<path d="M2.93816 15C2.79094 14.9282 2.70006 14.8092 2.62827 14.6638C1.78676 12.9744 0.94161 11.2877 0.0982802 9.60015C-0.0861982 9.23119 -0.0153149 9.01127 0.359094 8.83225C0.595372 8.71865 0.815292 8.56416 1.08065 8.51963C1.45052 8.45693 1.73768 8.59597 1.96033 8.88677C1.99577 8.93312 2.02576 8.98401 2.05121 9.03672C2.78639 10.5116 3.52431 11.9856 4.25495 13.4624C4.48578 13.9286 4.33401 14.4111 3.88236 14.6692C3.67153 14.7901 3.44888 14.891 3.23169 15.0009H2.93907L2.93816 15Z" fill="white"/>
<path d="M7.91442 6.22682C7.3001 6.22682 6.68578 6.21319 6.07145 6.23046C5.37353 6.25045 5.25175 6.12504 5.26538 5.41803C5.27538 4.9173 5.37807 4.45201 5.6298 4.02217C5.69795 3.90494 5.78519 3.79862 5.86062 3.68502C5.9315 3.5787 5.99421 3.57233 6.08781 3.67048C6.41587 4.01399 6.81846 4.24027 7.27738 4.35205C8.22067 4.58106 9.05128 4.36023 9.76193 3.69683C9.90461 3.56325 9.90461 3.55779 10.0227 3.71137C10.3844 4.1812 10.5907 4.70647 10.5907 5.30534C10.5907 5.45165 10.5925 5.59796 10.5907 5.74427C10.5871 6.04871 10.4126 6.22591 10.1091 6.22682C9.37752 6.22864 8.64597 6.22682 7.91533 6.22682H7.91442Z" fill="white"/>
<path d="M9.71103 1.8048C9.70921 2.79625 8.91405 3.59414 7.92895 3.59142C6.9484 3.58869 6.14596 2.77081 6.14869 1.77844C6.15232 0.799706 6.97112 -0.00363801 7.96257 -2.97102e-06C8.9295 0.00363207 9.71285 0.81152 9.71103 1.8048Z" fill="white"/>
</svg>
