<svg width="17" height="15" viewBox="0 0 17 15" fill="none" xmlns="http://www.w3.org/2000/svg">
<path d="M17 13.7604C16.8922 14.0835 16.7547 14.3845 16.4964 14.6141C16.1749 14.8987 15.7967 14.9942 15.3888 14.9971C14.77 15.0019 14.1502 14.999 13.5314 14.9971C13.3465 14.9971 13.3344 14.9807 13.3828 14.8003C13.4125 14.6874 13.4143 14.5726 13.4143 14.4588C13.4153 12.7079 13.4143 10.9579 13.4143 9.20702C13.4143 8.88289 13.3651 8.56647 13.2666 8.26066C13.2211 8.12078 13.2369 8.05904 13.3958 8.06579C13.8864 8.08509 14.3807 8.02527 14.8694 8.09763C15.924 8.25391 16.698 8.99093 16.9545 10.0646C16.9693 10.1254 16.9851 10.1862 17.0009 10.247V13.7604H17Z" fill="white"/>
<path d="M8.50367 14.999C7.42584 14.999 6.34801 14.999 5.27018 14.9981C5.16054 14.9981 5.04904 14.9913 4.94033 14.972C4.74613 14.9383 4.58817 14.7723 4.5538 14.5717C4.538 14.482 4.52964 14.3894 4.52964 14.2977C4.52871 12.6847 4.52778 11.0727 4.52964 9.45977C4.52964 8.66004 4.76843 7.96161 5.34916 7.41077C5.85277 6.93324 6.45765 6.73838 7.12758 6.73548C8.05117 6.73162 8.97383 6.72583 9.89742 6.73645C10.9622 6.74899 11.765 7.22458 12.2482 8.22883C12.4378 8.62242 12.4851 9.05074 12.4861 9.48389C12.4898 11.0853 12.4879 12.6867 12.4861 14.2881C12.4861 14.3797 12.4777 14.4713 12.4638 14.562C12.4294 14.7714 12.2696 14.9392 12.068 14.973C11.9592 14.9913 11.8477 14.9971 11.7381 14.9971C10.6603 14.999 9.58244 14.9981 8.5046 14.9981L8.50367 14.999Z" fill="white"/>
<path d="M8.51202 2.00661e-06C10.1557 0.00675485 11.477 1.38241 11.4696 3.07737C11.4621 4.77426 10.1269 6.15956 8.50273 6.1557C6.86275 6.15184 5.53776 4.75208 5.5452 3.03299C5.55263 1.36118 6.89063 -0.00675084 8.51202 2.00661e-06Z" fill="white"/>
<path d="M3.59959 11.8156C3.59959 12.6587 3.59866 13.5028 3.59959 14.3459C3.59959 14.5003 3.58565 14.6575 3.63675 14.8071C3.68693 14.9547 3.63675 15.0019 3.49459 15.001C2.86462 14.9971 2.23465 15.0039 1.60467 14.9961C1.40769 14.9932 1.20978 14.973 1.01744 14.9064C0.432065 14.7038 0.0111538 14.1356 0.00650799 13.4941C-0.000925326 12.4841 -0.00464198 11.474 0.00836632 10.465C0.023233 9.34015 0.975627 8.26162 2.07111 8.10631C2.60445 8.03106 3.14151 8.08412 3.67671 8.07062C3.77334 8.06772 3.79378 8.12367 3.76498 8.20374C3.57264 8.74493 3.59866 9.30928 3.59866 9.87073C3.59866 10.519 3.59866 11.1673 3.59866 11.8156H3.59959Z" fill="white"/>
<path d="M3.32274 7.46575C2.10832 7.46189 1.09832 6.4181 1.10575 5.15821C1.11319 3.91569 2.04328 2.85838 3.33575 2.84681C4.54181 2.83523 5.55367 3.89446 5.55831 5.13602C5.56296 6.40556 4.54181 7.46961 3.32274 7.46575Z" fill="white"/>
<path d="M13.6782 7.46575C12.4675 7.46286 11.4547 6.4017 11.4565 5.13795C11.4584 3.89832 12.4684 2.83909 13.6772 2.84681C14.966 2.85549 15.9017 3.90893 15.91 5.15628C15.9184 6.42292 14.901 7.46865 13.6782 7.46575Z" fill="white"/>
</svg>
