<svg width="27" height="27" viewBox="0 0 27 27" fill="none" xmlns="http://www.w3.org/2000/svg">
<path fill-rule="evenodd" clip-rule="evenodd" d="M13.5002 0.76123C9.992 0.76123 9.55283 0.775726 8.17505 0.837974C6.79986 0.900221 5.86038 1.11681 5.03888 1.43316C4.17777 1.75378 3.39675 2.25687 2.75091 2.90833C2.09408 3.54712 1.58571 4.31998 1.26119 5.17311C0.943441 5.98659 0.723857 6.91774 0.660996 8.2795C0.598996 9.64297 0.583496 10.077 0.583496 13.5518C0.583496 17.0265 0.598135 17.4605 0.660996 18.8249C0.723857 20.1866 0.942579 21.1169 1.26205 21.9304C1.58583 22.7831 2.09388 23.5565 2.75177 24.196C3.39688 24.8464 4.17735 25.3498 5.03888 25.6712C5.86038 25.9867 6.79986 26.2033 8.17505 26.2655C9.55283 26.3278 9.992 26.3423 13.5002 26.3423C17.0083 26.3423 17.4475 26.3278 18.8253 26.2655C20.2005 26.2033 21.1399 25.9867 21.9614 25.6704C22.8226 25.3497 23.6036 24.8466 24.2494 24.1952C24.9062 23.5564 25.4146 22.7835 25.7391 21.9304C26.0577 21.1169 26.2765 20.1866 26.3393 18.8249C26.4022 17.4605 26.4168 17.0257 26.4168 13.5518C26.4168 10.0778 26.4022 9.64297 26.3393 8.27865C26.2765 6.91688 26.0577 5.98659 25.7383 5.17311C25.414 4.31961 24.9056 3.54643 24.2486 2.90748C23.6035 2.25706 22.823 1.75365 21.9614 1.43231C21.1399 1.11766 20.1996 0.900221 18.8244 0.837974C17.4475 0.776579 17.0092 0.76123 13.5002 0.76123ZM13.5002 3.06608C16.9489 3.06608 17.3579 3.07887 18.7202 3.14027C19.9792 3.1974 20.6629 3.40461 21.1184 3.58112C21.7212 3.8122 22.1517 4.09018 22.6038 4.53699C23.0559 4.98466 23.3358 5.41101 23.5691 6.0079C23.7465 6.45898 23.9566 7.13603 24.0143 8.38268C24.0763 9.73165 24.0892 10.1367 24.0892 13.5518C24.0892 16.9668 24.0763 17.3719 24.0143 18.7208C23.9566 19.9675 23.7474 20.6445 23.5691 21.0956C23.3624 21.6512 23.0326 22.1538 22.6038 22.5665C22.1871 22.9911 21.6795 23.3178 21.1184 23.5224C20.6629 23.6981 19.9792 23.9061 18.7202 23.9632C17.3579 24.0246 16.9498 24.0374 13.5002 24.0374C10.0506 24.0374 9.64238 24.0246 8.28011 23.9632C7.02116 23.9061 6.33744 23.6989 5.88191 23.5224C5.32086 23.3177 4.81328 22.9911 4.3965 22.5665C3.96781 22.1538 3.63797 21.6512 3.43119 21.0956C3.2538 20.6445 3.04369 19.9675 2.986 18.7208C2.924 17.3719 2.91108 16.9668 2.91108 13.5518C2.91108 10.1367 2.924 9.73165 2.986 8.38268C3.04369 7.13603 3.25294 6.45898 3.43119 6.0079C3.66455 5.41101 3.94527 4.98466 4.3965 4.53699C4.81322 4.11239 5.32082 3.78574 5.88191 3.58112C6.33744 3.40546 7.02116 3.1974 8.28011 3.14027C9.64238 3.07887 10.0514 3.06608 13.5002 3.06608Z" fill="white"/>
<path fill-rule="evenodd" clip-rule="evenodd" d="M13.5002 17.8195C12.9342 17.8195 12.3738 17.7091 11.8509 17.4947C11.328 17.2802 10.8529 16.9658 10.4527 16.5695C10.0524 16.1732 9.73498 15.7028 9.51839 15.185C9.3018 14.6672 9.19032 14.1122 9.19032 13.5518C9.19032 12.9913 9.3018 12.4363 9.51839 11.9185C9.73498 11.4008 10.0524 10.9303 10.4527 10.534C10.8529 10.1377 11.328 9.82333 11.8509 9.60885C12.3738 9.39437 12.9342 9.28398 13.5002 9.28398C14.6432 9.28398 15.7395 9.73362 16.5477 10.534C17.356 11.3343 17.81 12.4199 17.81 13.5518C17.81 14.6836 17.356 15.7692 16.5477 16.5695C15.7395 17.3699 14.6432 17.8195 13.5002 17.8195ZM13.5002 6.97743C11.7394 6.97743 10.0507 7.67008 8.80558 8.903C7.5605 10.1359 6.86102 11.8081 6.86102 13.5518C6.86102 15.2954 7.5605 16.9676 8.80558 18.2005C10.0507 19.4334 11.7394 20.1261 13.5002 20.1261C15.261 20.1261 16.9497 19.4334 18.1948 18.2005C19.4399 16.9676 20.1393 15.2954 20.1393 13.5518C20.1393 11.8081 19.4399 10.1359 18.1948 8.903C16.9497 7.67008 15.261 6.97743 13.5002 6.97743ZM22.0708 6.85805C22.0708 7.27021 21.9055 7.66549 21.6112 7.95693C21.3168 8.24837 20.9177 8.4121 20.5014 8.4121C20.0852 8.4121 19.686 8.24837 19.3917 7.95693C19.0974 7.66549 18.9321 7.27021 18.9321 6.85805C18.9321 6.44589 19.0974 6.05061 19.3917 5.75917C19.686 5.46773 20.0852 5.304 20.5014 5.304C20.9177 5.304 21.3168 5.46773 21.6112 5.75917C21.9055 6.05061 22.0708 6.44589 22.0708 6.85805Z" fill="white"/>
</svg>
