<?xml version="1.0" encoding="UTF-8"?>
<svg id="lg-dog" xmlns="http://www.w3.org/2000/svg" viewBox="0 0 581.47 288.75">
  <g id="lg-dog">
    <g fill="#fff">
      <path d="m260.62,108.16c-.98,1.29-1.69,2.26-2.45,3.2-3.44,4.24-7.77,7.53-13.21,7.77-14.23.63-27.91-1.57-39.82-10.22-6.05-4.4-9.66-10.56-11.05-17.73-4.08-21.06-3.88-42.1.67-63.13,2.51-11.6,9.87-18.06,20.78-21.23,12.88-3.75,26.06-4.26,39.34-3.48,3.48.2,6.96.64,10.41,1.15,15.83,2.34,23.8,10.85,25.13,26.85.34,4.1.56,8.22.65,12.33.1,4.49-1.59,6.3-6.05,6.11-7.22-.32-14.43-.99-21.65-1.44-3.05-.19-4.43-1.82-4.72-4.73-.46-4.46-.87-8.94-1.54-13.37-.94-6.2-4.1-8.85-10.41-8.98-2-.04-4-.03-5.99.13-7.93.63-11.73,3.6-13.93,11.27-2.63,9.14-4.34,18.48-4.42,28.01-.08,9.35-.68,18.72.67,28.05,1.29,8.93,5.63,12.64,14.67,12.44,3.3-.07,6.44-.87,9.39-2.29,4.72-2.26,7.79-8.4,6.95-13.46-.29-1.74-1.44-1.81-2.74-1.8-3,.02-5.99.04-8.99.1-3.07.06-4.6-1.2-4.48-4.47.47-13.14-.48-11.49,11.23-11.62,11.37-.12,22.74-.06,34.11-.25,3.25-.06,4.95,1.15,5.27,4.35.15,1.49.49,2.96.53,4.45.38,14.85.35,29.7.05,44.55-.07,3.71-1.2,4.98-5,4.94-6.11-.06-12.24.28-18.32.88-3.36.33-4.16-.92-4.12-3.91.07-4.68.17-9.39-.96-14.48Z"/>
      <path d="m367.82,108.19c-1.14,1.46-1.99,2.65-2.94,3.75-3.38,3.93-7.57,6.98-12.73,7.2-14.23.6-27.91-1.58-39.82-10.23-6.64-4.83-10.1-11.74-11.53-19.54-3.37-18.33-2.72-36.73-.36-55.15,2.23-17.39,12.41-26.38,29.21-29.18,14.67-2.44,29.33-2.88,43.97-.37,15.36,2.64,22.71,11,24.01,26.68.34,4.1.56,8.22.65,12.33.1,4.48-1.59,6.29-6.06,6.1-7.22-.32-14.43-.99-21.65-1.44-3.05-.19-4.42-1.84-4.72-4.74-.46-4.46-.87-8.94-1.54-13.37-.93-6.18-4.11-8.83-10.42-8.97-1.62-.04-3.25-.01-4.87.07-9.03.45-13.11,3.65-15.4,12.41-2.53,9.68-4.23,19.51-4.14,29.57.08,8.48-.54,16.97.72,25.43,1.33,8.92,5.65,12.63,14.69,12.43,3.43-.08,6.69-.92,9.73-2.45,4.48-2.25,7.42-8.43,6.6-13.31-.29-1.74-1.45-1.79-2.75-1.79-3.12.01-6.24.03-9.36.06-2.76.03-4.16-1.18-4.08-4.07.39-13.62-.54-11.85,11.22-11.98,11.37-.13,22.74-.06,34.11-.25,3.26-.06,4.94,1.16,5.26,4.36.15,1.49.49,2.96.52,4.45.38,14.85.35,29.7.05,44.55-.08,3.72-1.23,4.98-5.01,4.93-5.98-.07-12,.2-17.94.86-3.74.41-4.59-.94-4.5-4.27.13-4.55.16-9.14-.95-14.06Z"/>
      <path d="m183.16,59.32c0,5.99.12,11.99-.02,17.98-.48,20.25-9.84,31.03-29.91,33.66-9.91,1.3-19.96,1.22-29.83-.71-15.03-2.93-24.66-13.14-26.6-28.57-1.76-14.04-1.04-28.17-.33-42.25.37-7.45.93-14.86,3.7-22.02,1.99-5.14,5.22-8.62,10.02-11.02,6.73-3.35,14.02-4.46,21.33-5.32,9.43-1.11,18.87-1.88,28.29.44,13.15,3.23,20.18,11.04,22.01,24.55,1.5,11.05,1.62,22.14,1.35,33.25Zm-24.05,5.36c-.53-11.45-1-22.91-1.62-34.35-.26-4.78-2.89-8.08-7.25-8.73-4.05-.61-8.21-.99-12.29-.81-7.39.34-11.19,3.45-11.43,9.8-.68,17.95-.49,35.9,1.45,53.78.47,4.35,3.02,6.64,7.45,6.99,3.1.24,6.24.29,9.35.15,8.16-.37,12.18-4.22,13.44-12.28.76-4.84.72-9.68.9-14.55Z"/>
      <path d="m492.86,58.65c-.14,7.98.54,15.98-.42,23.94-2.3,19.12-13.4,26.61-30.64,28.5-8.93.98-17.93.83-26.88-.52-16.17-2.45-27.03-13.73-28.58-30.09-1.7-17.96-1.66-36.04,1.18-53.78,2.24-13.99,4.59-19.2,20.62-23.16,14.36-3.55,28.9-5.1,43.71-1.52,8.84,2.14,14.06,7.56,17.36,15.47,2.89,6.93,3.24,14.34,3.59,21.67.3,6.48.06,12.98.06,19.48Zm-56.87-11.04c-.17,10.48.43,20.93,1.3,31.37.94,11.26,2.25,12.62,13.68,12.64.12,0,.25,0,.37,0,11.89-.03,16.44-4.35,17.12-16.28.06-1,.04-2,.07-2.99.47-13.23-.82-26.42-.88-39.65,0-1.48-.39-2.96-.69-4.42-.78-3.7-3.14-6.09-6.77-6.63-4.18-.62-8.47-1.07-12.67-.85-8.06.43-11.26,4-11.52,12.21-.15,4.86-.03,9.73-.03,14.6Z"/>
      <path d="m.75,88.93c0-17.59.05-35.19-.02-52.78-.03-7.23-.25-14.47-.55-21.7-.15-3.41,1.2-4.66,4.58-4.6,13.48.22,26.95-.87,40.43-.16,6.39.34,12.67,1.33,18.71,3.46,14.41,5.08,20.23,16.32,21.05,30.61.84,14.57,1.27,29.16.25,43.77-.72,10.34-6.85,16.5-15.07,21.27-8.84,5.13-18.61,7.18-28.69,7.54-12.33.44-24.64,1.87-37.02.3-3.41-.43-4.48-1.59-4.41-4.86.16-7.61.05-15.23.05-22.85.23,0,.46,0,.69,0Zm61.5-17.06c.4-6.64-.42-13.23-.9-19.81-.38-5.33-1.13-10.66-2.84-15.8-1.34-4.03-4-6.51-8.14-7.46-5.64-1.29-11.27-1.72-17.08-.94-2.96.4-3.76,1.45-3.67,4.22.36,10.73.54,21.46.81,32.19.25,9.98.59,19.96.75,29.94.05,2.83,1.08,4.14,3.99,4.03,4.12-.16,8.25.03,12.36-.25,7.85-.53,11.3-3.49,13.74-10.88,1.66-5.03.74-10.16.97-15.24Z"/>
      <path d="m539.74,123.27c-6.58.15-12.41-.03-18.2-1.29-7.61-1.66-13-5.85-16.48-12.84-3.17-6.36-5.39-12.88-5.07-20.08.2-4.54,1.39-5.83,5.85-5.89,6.24-.08,12.49-.09,18.74-.04,5,.04,7.01,1.93,7.23,7,.15,3.39.5,6.71,1.46,9.96,1.64,5.53,3.27,6.98,8.1,7.22,6.66.33,10.52-1.51,12.37-6.23,2.58-6.62,2.11-13.22-.7-19.66-1.2-2.75-3.51-4.47-6.17-5.75-5.98-2.88-12.23-5.09-18.58-6.95-20.06-5.88-26.76-20.05-25.76-40.58.09-1.86.36-3.73.67-5.57,1.97-12,7.71-17.54,20.79-19.31,10.8-1.45,21.66-1.48,32.45.45,13.03,2.33,20.02,10.16,21.22,23.4.46,5.1.98,10.16.11,15.29-.42,2.48-1.67,3.83-3.97,4.32-6.93,1.46-13.88,1.2-20.85.27-2.62-.35-3.07-2.28-3.39-4.27-.82-5.04-1.3-10.15-2.36-15.14-1.33-6.29-4.11-7.96-11.6-7.73-5.04.16-7.91,2.73-8.64,8.49-.43,3.44-.42,7-.08,10.45.51,5.14,3.49,8.61,8.22,10.74,6.74,3.04,13.61,5.8,20.81,7.34,15.34,3.28,22.06,13.76,24.61,28.07.91,5.07,1.13,10.18.79,15.29-.66,9.93-6.47,15.88-15.41,19.18-8.67,3.2-17.65,4.42-26.17,3.88Z"/>
      <path d="m129.2,188.01c8.3.35,17.92-.56,27.51.64,3.23.4,4.3,1.75,4.09,4.83-.25,3.6-.04,7.21-.49,10.83-.42,3.34-2.02,4.4-5.21,4.34-6.61-.13-13.24.08-19.85-.02-2.68-.04-3.83.79-3.82,3.62.02,3.73-.28,7.47-.6,11.2-.24,2.78.93,3.68,3.64,3.78,6.73.25,13.44.82,20.17,1.18,2.41.13,4.76-.15,5.16,3.32.42,3.64-.89,6.92-3.84,8.17-1.87.8-3.86.93-5.88.93-6.49,0-12.98.11-19.47.08-2.36-.01-3.39.98-3.46,3.33-.25,8.23-.5,16.46-.92,24.68-.16,3.05,1.14,3.85,3.95,3.84,15.23-.06,30.47,0,45.7.04,5.17.01,5.58.5,4.91,5.63-.08.62-.23,1.23-.3,1.85-.9,7.69-.89,7.64-8.79,7.79-9.11.17-18.21.51-27.32.66-11.61.18-23.19-1.22-34.81-.63-2.74.14-3.73-1.06-3.91-3.7-.47-7.01.81-13.93,1.07-20.9.24-6.36.38-12.71.53-19.07.23-10.23.43-20.45.84-30.67.12-3.05-.53-4.48-3.89-3.79-3.36.7-4.76-.76-4.6-4.27.23-4.73.18-9.48.06-14.22-.06-2.58.93-3.54,3.51-3.51,8.24.1,16.48.04,26.02.04Z"/>
      <path d="m438.14,230.51c0,5.49.13,10.98-.03,16.46-.41,14.04-7.6,22.48-21.31,24.72-8.41,1.37-16.92,1.31-25.32-.2-12.01-2.17-19.5-10.22-21.13-22.56-1.45-10.93-.93-21.9-.26-32.85.33-5.34.74-10.62,2.35-15.84,1.78-5.78,5.36-9.57,10.93-11.35,11.18-3.56,22.67-5.16,34.3-3.12,12.88,2.26,18.38,8.88,19.84,21.95.85,7.6.58,15.19.63,22.79Zm-19.9,4.89c0-8.35.11-16.71-.04-25.06-.09-4.99-2.05-7.62-5.98-8.29-2.82-.48-5.71-.78-8.56-.75-7,.08-9.5,2.82-9.89,9.79-.68,12.36.07,24.67.89,36.99.44,6.64,2.25,8.61,8.94,8.82,1.74.06,3.51.05,5.23-.22,6.02-.96,8.29-3.36,9.57-9.35.85-3.97.5-7.96-.15-11.94Z"/>
      <path d="m244.77,250.16c2.25,0,4.5-.04,6.74,0,4.52.09,5.67,1.29,6.09,5.72.23,2.47.69,4.93,1.21,7.36.71,3.34,2.37,5.65,6.24,5.79,5.16.18,7.98-1.13,9.6-4.83,3.78-8.63.21-17.74-8.43-21.17-4.52-1.8-9.12-3.42-13.73-4.95-11.18-3.7-16.65-11.8-17.74-23.12-.41-4.2-.41-8.46.43-12.68,1.76-8.8,5.92-13.23,14.72-14.62,9.29-1.46,18.65-1.61,27.93.35,9.61,2.03,14.64,7.74,15.7,17.49.44,4.09,1.03,8.15.23,12.29-.41,2.12-1.38,3.35-3.45,3.87-5.32,1.35-10.66.81-15.98.23-2.12-.23-2.69-1.95-2.94-3.8-.5-3.58-.96-7.17-1.58-10.73-.89-5.11-3.59-7.14-8.95-6.89-4.39.2-6.63,2.58-7.01,7.61-.14,1.86-.06,3.74-.08,5.61-.05,4.77,2.14,8.02,6.49,9.99,4.9,2.22,9.99,3.92,15.12,5.51,14.63,4.53,20.16,11.58,21.09,27.04.13,2.24.16,4.5.05,6.74-.33,6.51-3.2,11.41-9.22,14.3-9.55,4.58-19.69,5.14-30.01,4.46-1.87-.12-3.74-.29-5.58-.61-11.64-2.03-20.9-15.07-19.17-26.88.38-2.57,1.55-4.13,4.38-4.06,2.62.06,5.24.01,7.87.01,0-.02,0-.03,0-.05Z"/>
      <path d="m360.29,216.59c-.52,18.3-1.08,39.39-1.73,60.47-.21,6.66-1.61,7.75-8.31,7.01-.5-.05-.99-.19-1.48-.21-9.98-.38-8.35-.89-8.42-9.38-.06-8.74-.09-17.48.06-26.22.05-3.1-1.24-4.32-4.17-4.32-3.12,0-6.25,0-9.36-.16-3.13-.16-4.2,1.34-4.15,4.29.1,6.49.08,12.98.07,19.48,0,5.75-.53,6.27-6.11,6.34-3,.04-6-.04-8.99.19-3.07.24-4.44-1.16-4.54-4.04-.13-3.74-.2-7.49-.26-11.23-.21-11.98-.41-23.96-.6-35.94-.03-1.8.14-3.6-2.56-3.59-1.03,0-1.31-1.02-1.36-1.95-.24-4.73-.5-9.47-.7-14.2-.12-2.9,1.27-4.38,4.26-4.4,5.25-.03,10.49-.2,15.74-.23,4.46-.02,5.4.93,5.83,5.36.62,6.35.54,12.71.62,19.08.06,4.63.24,4.87,4.97,4.74,10.54-.3,9.69,1.28,9.73-9.65.03-7.62.07-15.23.21-22.85.1-5.52,2.01-7.63,7.49-8.43,3.62-.52,7.22-.04,10.81.53,2.05.33,2,1.8,2.21,3.32,1.05,7.71.45,15.46.74,25.97Z"/>
      <path d="m465.23,182.27c9.15-.47,18.19.22,27.04,2.8,5.52,1.61,8.97,4.95,10.24,10.73,2.32,10.56,2.24,21.11-.26,31.53-2.47,10.29-11.18,16.63-22.75,17.33-2.74.17-5.48.45-8.22.5-2.22.04-3.17.95-3.08,3.18.38,10.35.59,20.7,1.11,31.04.23,4.66.44,4.66-4.28,5.25-4.6.57-9.22.44-13.84.56-2.38.06-3.48-.93-3.47-3.28,0-.87-.07-1.75-.07-2.62-.02-30.34-.04-60.67-.04-91.01,0-5.28.03-5.49,5.28-5.93,4.09-.34,8.23-.07,12.35-.07Zm22.14,33.88s-.05,0-.07,0c0-2.24.14-4.49-.03-6.72-.42-5.54-3.52-8.61-9.03-9.07-1.61-.13-3.24-.03-4.85-.14-3.26-.23-4.67.92-4.54,4.48.26,7.09.08,14.19.08,21.29q0,6.47,6.65,6.24c.25,0,.5,0,.75-.02,7.65-.46,10.71-3.56,11.04-11.21.07-1.62,0-3.24,0-4.85Z"/>
      <path d="m37.48,233.58c0-15.23.12-30.47-.08-45.7-.05-3.83,1.21-5.41,4.97-5.58,12.12-.57,24.16-.63,36.17,1.72,9.03,1.77,13.63,6.94,14.67,15.89,1.01,8.75.89,17.48-.84,26.07-2.23,11.08-10.99,17.91-23.21,18.68-1.99.13-3.98.26-5.97.43-5.09.44-5.18.45-5.06,5.74.22,9.98.46,19.96.91,29.93.12,2.74-.57,3.83-3.42,3.81-3.86-.02-7.72.47-11.59.55-6.47.13-6.49.07-6.5-6.6-.01-14.98,0-29.97,0-44.95h-.02Zm21.32-17.19c0,2.74,0,5.49,0,8.23,0,8.19.77,8.83,9.04,7.45,5.7-.95,8.43-3.35,9.13-8.74.65-4.95.71-9.98.01-14.93-.69-4.91-3.89-7.63-8.91-8.02-1.98-.16-3.99-.04-5.98-.09-2.35-.06-3.37.98-3.31,3.39.1,4.24.03,8.48.02,12.72Z"/>
      <path d="m197.67,187.39c8.36,0,16.73.15,25.09-.07,3.66-.09,4.9,1.26,4.69,4.79-.21,3.73-.19,7.49,0,11.23.17,3.48-1.36,4.67-4.68,4.53-3.86-.17-7.74.06-11.61-.09-2.88-.11-4,.93-3.93,3.9.33,13.47-.38,26.95.6,40.41.33,4.47.04,8.98.2,13.47.1,2.65-1.07,3.9-3.59,4.25-4.21.57-8.41,1.17-12.67.92-4.55-.26-5.31-.89-5.08-5.39.85-16.96.68-33.93.67-50.89,0-4.92,0-4.86-4.9-5.02-3.98-.13-7.98.44-11.92-.66-3.39-.94-5.06-2.95-4.78-6.53.29-3.6.51-7.21.73-10.82.18-2.89,1.6-4.18,4.57-4.15,8.86.09,17.73.03,26.59.03,0,.04,0,.07,0,.11Z"/>
    </g>
  </g>
</svg>