<svg width="64" height="64" viewBox="0 0 64 64" fill="none" xmlns="http://www.w3.org/2000/svg">
<path d="M46.6664 63.9994C44.4874 63.8958 42.3334 63.4893 40.2665 62.7914C34.9018 60.962 29.0822 60.962 23.7175 62.7914C14.9176 65.9381 7.65378 62.8474 7.98444 54.3167C8.00044 41.7087 19.8882 29.3327 32 29.3327C44.1118 29.3327 55.9996 41.7087 55.9996 54.3167C55.9996 58.7327 54.3809 63.9994 46.6664 63.9994ZM58.2502 13.3701C54.6129 12.9354 51.317 16.3781 50.7463 22.5967C49.5917 37.2847 62.2314 39.1967 63.9221 24.1674C64.4901 17.9514 61.8874 13.8047 58.2502 13.3701ZM0.0779221 24.1674C1.77122 39.1994 14.4003 37.2741 13.2537 22.5967C12.683 16.3781 9.38708 12.9354 5.74982 13.3701C2.11255 13.8047 -0.490067 17.9514 0.0779221 24.1674ZM15.939 10.8341C17.6323 25.8714 30.2694 23.9407 29.1121 9.26341C28.5334 3.04474 25.2481 -0.397924 21.6002 0.0367424C17.9523 0.471409 15.3683 4.61808 15.939 10.8341ZM42.2505 0.0367424C38.6132 -0.397924 35.3173 3.04474 34.7466 9.26341C33.592 23.9514 46.2317 25.8634 47.9224 10.8341C48.4904 4.61808 45.8877 0.471409 42.2505 0.0367424Z" fill="white"/>
</svg>
