<svg width="38" height="38" viewBox="0 0 38 38" fill="none" xmlns="http://www.w3.org/2000/svg">
<path d="M27.0329 37.9997C25.7706 37.9382 24.5228 37.6968 23.3255 37.2825C20.2179 36.1962 16.8467 36.1962 13.739 37.2825C8.64148 39.1508 4.43367 37.3157 4.62522 32.2506C4.63449 24.7646 11.5208 17.4164 18.5369 17.4164C25.553 17.4164 32.4394 24.7646 32.4394 32.2506C32.4394 34.8726 31.5017 37.9997 27.0329 37.9997ZM33.7431 7.93854C31.6361 7.68046 29.7268 9.72454 29.3963 13.4169C28.7274 22.1379 36.0494 23.2731 37.0287 14.3495C37.3577 10.6587 35.8501 8.19663 33.7431 7.93854ZM0.0451386 14.3495C1.02603 23.2747 8.3418 22.1315 7.67758 13.4169C7.34701 9.72454 5.43774 7.68046 3.33075 7.93854C1.22376 8.19663 -0.283886 10.6587 0.0451386 14.3495ZM9.23311 6.43279C10.214 15.3612 17.5344 14.2149 16.864 5.50021C16.5288 1.80788 14.6257 -0.236207 12.5125 0.0218768C10.3994 0.27996 8.90254 2.74204 9.23311 6.43279V6.43279ZM24.4748 0.0218768C22.3678 -0.236207 20.4586 1.80788 20.128 5.50021C19.4591 14.2212 26.7811 15.3565 27.7604 6.43279C28.0894 2.74204 26.5818 0.27996 24.4748 0.0218768Z" fill="#52057B" fill-opacity="0.7"/>
</svg>
