<svg width="12" height="12" viewBox="0 0 12 12" fill="none" xmlns="http://www.w3.org/2000/svg">
<path d="M9.46 6.5C9.42088 6.77631 9.3487 7.04692 9.245 7.306L11.4375 8.5825L10.9375 9.447L8.7435 8.1695C8.57853 8.37805 8.39032 8.56711 8.1825 8.733L9.4615 10.933L8.595 11.4355L7.3185 9.24C7.05572 9.34663 6.78082 9.42052 6.5 9.46V12H5.5V9.46C5.22164 9.42088 4.94911 9.34784 4.6885 9.2425L3.4135 11.4355L2.55 10.9325L3.8265 8.7375C3.61759 8.57145 3.42836 8.38205 3.2625 8.173L1.0735 9.447L0.5705 8.5825L2.7565 7.3095C2.65195 7.04938 2.57926 6.77758 2.54 6.5H0V5.5H2.54C2.57952 5.22102 2.65272 4.94786 2.758 4.6865L0.567 3.411L1.07 2.547L3.2635 3.824C3.4321 3.61257 3.62454 3.4213 3.837 3.254L2.563 1.0635L3.427 0.5605L4.7 2.7525C4.95719 2.64988 5.22579 2.57854 5.5 2.54V0H6.5V2.54C6.77599 2.57912 7.04626 2.65131 7.305 2.755L8.581 0.5605L9.445 1.0635L8.169 3.2585C8.37998 3.42573 8.57121 3.61646 8.739 3.827L10.939 2.547L11.442 3.411L9.242 4.6905C9.34706 4.95055 9.42026 5.22236 9.46 5.5H12V6.5H9.46Z" fill="white"/>
</svg>
