<svg width="27" height="26" viewBox="0 0 27 26" fill="none" xmlns="http://www.w3.org/2000/svg">
<path d="M0.583496 25.6782L2.40671 19.1156C1.28645 17.1903 0.698147 15.0069 0.701024 12.7849C0.68805 5.78319 6.43015 0.097168 13.4872 0.097168C16.9123 0.097168 20.1283 1.41212 22.5498 3.81077C23.7434 4.98655 24.6895 6.3852 25.3332 7.92566C25.977 9.46612 26.3056 11.1178 26.3001 12.7849C26.3001 19.773 20.558 25.4591 13.5002 25.4591C11.3518 25.4591 9.25541 24.9301 7.3803 23.9121L0.583496 25.6782ZM7.68022 21.6298L8.07096 21.8618C9.71105 22.8228 11.5815 23.3304 13.4872 23.3317C19.3468 23.3317 24.1258 18.6002 24.1258 12.797C24.1258 9.98649 23.0192 7.3309 21.0136 5.34563C20.0273 4.36349 18.8545 3.58433 17.5628 3.05307C16.2711 2.52181 14.8859 2.24895 13.4872 2.25021C7.61459 2.25096 2.83714 6.98251 2.83714 12.7857C2.83714 14.7709 3.39731 16.7184 4.46498 18.3946L4.71225 18.7944L3.6316 22.6878L7.68098 21.6306L7.68022 21.6298Z" fill="white"/>
<path fill-rule="evenodd" clip-rule="evenodd" d="M10.2971 7.47298C10.0628 6.94397 9.8026 6.93113 9.58128 6.93113C9.38591 6.91828 9.1768 6.91828 8.95548 6.91828C8.7479 6.91828 8.39608 6.99536 8.09691 7.31805C7.79699 7.63999 6.97734 8.401 6.97734 9.9608C6.97734 11.5214 8.12286 13.0298 8.27931 13.2361C8.435 13.4424 10.4925 16.7426 13.7482 18.0198C16.4559 19.077 17.0031 18.8707 17.5892 18.8057C18.1746 18.7415 19.4773 18.0455 19.7505 17.2973C20.0108 16.5627 20.0108 15.9181 19.9329 15.7889C19.8551 15.6604 19.633 15.5826 19.3209 15.4148C18.995 15.2606 17.4328 14.4868 17.1336 14.3833C16.8337 14.2805 16.6253 14.2291 16.417 14.5382C16.2087 14.8609 15.5966 15.5697 15.402 15.776C15.2188 15.9824 15.0242 16.0081 14.7113 15.8531C14.3862 15.699 13.3574 15.3634 12.1333 14.2805C11.1824 13.4416 10.5444 12.398 10.349 12.0889C10.1674 11.7662 10.3231 11.5984 10.4925 11.4435C10.636 11.3022 10.8184 11.0702 10.9748 10.8896C11.1305 10.7082 11.1824 10.5669 11.2999 10.3606C11.4037 10.1543 11.3518 9.9608 11.274 9.80663C11.1954 9.66456 10.5841 8.104 10.2971 7.47222V7.47298Z" fill="white"/>
</svg>
